<?xml version="1.0" standalone="no"?>
<!DOCTYPE svg PUBLIC "-//W3C//DTD SVG 20010904//EN"
 "http://www.w3.org/TR/2001/REC-SVG-20010904/DTD/svg10.dtd">
<svg version="1.0" xmlns="http://www.w3.org/2000/svg"
 width="360.000000pt" height="360.000000pt" viewBox="0 0 360.000000 360.000000"
 preserveAspectRatio="xMidYMid meet">

<g transform="translate(0.000000,360.000000) scale(0.100000,-0.100000)"
fill="#000000" stroke="none">
<path d="M930 2525 l-145 -145 355 0 355 0 145 145 145 145 -355 0 -355 0
-145 -145z"/>
<path d="M1513 2238 l-433 -433 0 218 0 217 -145 0 -145 0 0 -650 0 -650 145
0 145 0 0 428 0 428 427 -428 428 -428 205 0 205 0 -430 430 -430 430 408 408
c224 224 407 410 407 414 0 17 -115 39 -230 44 l-125 6 -432 -434z"/>
<path d="M2305 2459 l-100 -101 25 -16 c56 -39 80 -66 109 -124 36 -71 41
-145 15 -221 -22 -65 -91 -139 -156 -167 -51 -22 -63 -23 -300 -22 -137 1
-248 -1 -248 -5 0 -4 195 -202 433 -440 l432 -433 205 0 205 0 -312 313 -313
312 58 30 c86 45 191 154 236 245 40 84 66 186 66 271 0 75 -32 196 -72 271
-33 63 -147 188 -170 188 -8 0 -58 -45 -113 -101z"/>
</g>
</svg>
