<svg id="visual" viewBox="0 0 900 600" width="900" height="600" xmlns="http://www.w3.org/2000/svg" xmlns:xlink="http://www.w3.org/1999/xlink" version="1.1"><rect x="0" y="0" width="900" height="600" fill="#001122"></rect><path d="M0 209L21.5 214.5C43 220 86 231 128.8 221.3C171.7 211.7 214.3 181.3 257.2 172.2C300 163 343 175 385.8 182.7C428.7 190.3 471.3 193.7 514.2 201.8C557 210 600 223 642.8 223.3C685.7 223.7 728.3 211.3 771.2 199.8C814 188.3 857 177.7 878.5 172.3L900 167L900 0L878.5 0C857 0 814 0 771.2 0C728.3 0 685.7 0 642.8 0C600 0 557 0 514.2 0C471.3 0 428.7 0 385.8 0C343 0 300 0 257.2 0C214.3 0 171.7 0 128.8 0C86 0 43 0 21.5 0L0 0Z" fill="#724d2d"></path><path d="M0 134L21.5 135.8C43 137.7 86 141.3 128.8 140.2C171.7 139 214.3 133 257.2 129.8C300 126.7 343 126.3 385.8 131C428.7 135.7 471.3 145.3 514.2 150.3C557 155.3 600 155.7 642.8 154.3C685.7 153 728.3 150 771.2 151.7C814 153.3 857 159.7 878.5 162.8L900 166L900 0L878.5 0C857 0 814 0 771.2 0C728.3 0 685.7 0 642.8 0C600 0 557 0 514.2 0C471.3 0 428.7 0 385.8 0C343 0 300 0 257.2 0C214.3 0 171.7 0 128.8 0C86 0 43 0 21.5 0L0 0Z" fill="#6a482d"></path><path d="M0 132L21.5 127.8C43 123.7 86 115.3 128.8 113.5C171.7 111.7 214.3 116.3 257.2 119.2C300 122 343 123 385.8 124.8C428.7 126.7 471.3 129.3 514.2 124.7C557 120 600 108 642.8 105.8C685.7 103.7 728.3 111.3 771.2 122.2C814 133 857 147 878.5 154L900 161L900 0L878.5 0C857 0 814 0 771.2 0C728.3 0 685.7 0 642.8 0C600 0 557 0 514.2 0C471.3 0 428.7 0 385.8 0C343 0 300 0 257.2 0C214.3 0 171.7 0 128.8 0C86 0 43 0 21.5 0L0 0Z" fill="#62432c"></path><path d="M0 91L21.5 92.3C43 93.7 86 96.3 128.8 95.5C171.7 94.7 214.3 90.3 257.2 84.3C300 78.3 343 70.7 385.8 73.8C428.7 77 471.3 91 514.2 96.5C557 102 600 99 642.8 97C685.7 95 728.3 94 771.2 91.8C814 89.7 857 86.3 878.5 84.7L900 83L900 0L878.5 0C857 0 814 0 771.2 0C728.3 0 685.7 0 642.8 0C600 0 557 0 514.2 0C471.3 0 428.7 0 385.8 0C343 0 300 0 257.2 0C214.3 0 171.7 0 128.8 0C86 0 43 0 21.5 0L0 0Z" fill="#5a3e2c"></path><path d="M0 61L21.5 58C43 55 86 49 128.8 50.7C171.7 52.3 214.3 61.7 257.2 62C300 62.3 343 53.7 385.8 51.2C428.7 48.7 471.3 52.3 514.2 53.2C557 54 600 52 642.8 50.2C685.7 48.3 728.3 46.7 771.2 43.8C814 41 857 37 878.5 35L900 33L900 0L878.5 0C857 0 814 0 771.2 0C728.3 0 685.7 0 642.8 0C600 0 557 0 514.2 0C471.3 0 428.7 0 385.8 0C343 0 300 0 257.2 0C214.3 0 171.7 0 128.8 0C86 0 43 0 21.5 0L0 0Z" fill="#51392b"></path></svg>